# xmcd CD database file
#
# Track frame offsets:
#	150
#	45337
#	110957
#	151615
#
# Disc length: 2817 seconds
#
# Revision: 0
# Processed by: cddbd v1.5.1PL2 Copyright (c) Steve Scherf et al.
# Submitted via: CDex 1.51
#
DISCID=260aff04
DTITLE=オーケストラ・アンサンブル金沢 - 21世紀へのメッセージ Vol.2
DYEAR=1995
DGENRE=Contemporary music
TTITLE0=思いだす　ひとびとのしぐさを (藤家渓子)
TTITLE1=ピアノ・コンチェルティーノ (湯浅譲二)
TTITLE2=ウェーヴ・メカニクス (田中カレン)
TTITLE3=透空の蔦 (猿谷紀郎)
EXTD=YEAR: 1995
EXTT0=
EXTT1=
EXTT2=
EXTT3=
PLAYORDER=
